<?xml version="1.0" encoding="UTF-8"?>
<svg id="Layer_2" data-name="Layer 2" xmlns="http://www.w3.org/2000/svg" xmlns:xlink="http://www.w3.org/1999/xlink" viewBox="0 0 1761.57 2031.69">
  <defs>
    <style>
      .cls-1 {
        letter-spacing: .15em;
      }

      .cls-2 {
        fill: #fff;
      }

      .cls-3 {
        letter-spacing: .12em;
      }

      .cls-4 {
        font-family: SUITVariable-SemiBold, 'SUIT Variable';
        font-size: 27.09px;
        font-variation-settings: 'wght' 600;
        font-weight: 600;
      }

      .cls-5 {
        fill: none;
      }

      .cls-6 {
        clip-path: url(#clippath-1);
      }

      .cls-7 {
        letter-spacing: .14em;
      }

      .cls-8 {
        letter-spacing: .04em;
      }

      .cls-9 {
        clip-path: url(#clippath);
      }
    </style>
    <clipPath id="clippath">
      <rect class="cls-5" x="1544.86" y="1332.93" width="216.71" height="216.71"/>
    </clipPath>
    <clipPath id="clippath-1">
      <rect class="cls-5" x="318.46" y="553.26" width="1009.63" height="860.48"/>
    </clipPath>
  </defs>
  <g id="Layer_1-2" data-name="Layer 1">
    <g>
      <g class="cls-9">
        <g>
          <text class="cls-4" transform="translate(1598.01 1500.05)"><tspan class="cls-8" x="0" y="0">O</tspan><tspan class="cls-3" x="24.92" y="0">V</tspan><tspan class="cls-1" x="49.06" y="0">BN</tspan><tspan class="cls-7" x="94.13" y="0">E</tspan></text>
          <g class="cls-6">
            <g>
              <path class="cls-2" d="M1625.35,0v2031.69H0V0h1625.35ZM102.93,78.57c-2.6-.42-3.62,1.07-4.05,3.39s-1.07,30.73,4.05,25.04c.42-4.55-.56-9.81,0-14.24.24-1.88.74-3.94,2.69-2,1.44,3.92,8.25,20.06,13.56,16.24l-10.85-18.29c-.01-4.29,10.56-8,8.14-10.13s-9.63,9.69-12.85,9.49l-.7-9.49ZM123.26,80.59v24.38c7.07,5.57,3.8-2.17,4.05-4.03.45-3.33,4.39-27.46-4.05-20.35ZM138.15,81.27v25.73h4.06v-25.73c2.76-.46,7.82,1.9,6.77-2.7h-16.92s0,2.71,0,2.71h6.09ZM174.71,83.98c3.57-3.63-15.43-11.19-22.81.88-8.97,14.66,8.65,29.22,22.14,19.44,1.14-.83,3.82-3.15.03-2.69-26.67,17.54-26.52-35.14.64-17.63ZM180.14,78.56v28.44h4.06s0-16.26,0-16.26l12.77-.02.79,16.28h4.06v-28.45h-4.06s0,10.84,0,10.84l-12.77.02-.79-10.87h-4.06ZM207.23,78.56v28.44h17.61c-1.22-4.98-12.52-1.67-13.55-2.7v-13.56s12.21-.67,12.21-.67l-12.21-.67-.03-7.37c.32-2.12,12.44.52,13.58-3.46h-17.61ZM247.87,100.23c-8.74-5.15-10.84-22.08-21.67-21.66-.14,1.4,2.71,2.8,2.71,3.37v25.06h1.35v-20.32c6.65,2.98,10.63,15.59,14.83,19.42,1.49,1.36,2.29.93,4.13.89v-28.44h-1.35v21.67ZM1522.41,79.92l-6.85.59-1.28,7.53,6.88.58,2.59,6.18-.6-6.77-7.52-1.35v-4.05c.97-1,8.27,2.3,6.78-2.71ZM121.9,147.63c.61-4.37,4.56-5.27,5.35-10.23,3.56-22.63-28.91-23.64-29.65-3.86-.56,14.95,12.78,13.67,21.92,15.81,3.57.84,9.8,7.54,13.22,1.02l-10.83-2.73ZM140.86,120.55h-4.06v25.06c6.43,7.28,13.84-1.06,21.67,2.03v-27.09h-4.06v24.38l-11.26,1.45c-.88-.27-2.28-3.14-2.28-3.48v-22.35ZM163.89,120.55v27.09l17.62-.68-13.57-.67v-13.56c1.11-1.11,13.42,2.24,12.2-2.01l-12.2-.69,1.27-7.54,12.27-1.93h-17.6ZM184.21,120.55v27.09l17.62-.68-13.58-1.46.02-12.77c16.69,1.32,17.14-3.98,0-2.69v-8.14s13.54-1.33,13.54-1.33h-17.6ZM205.88,123.93c1.52,5.64-1.12,17.27,0,23.7h1.35v-18.96c3.17-.82,2.27.75,3.11,1.72,3.52,4.07,7.78,12.92,11.17,15.83,1.72,1.47,2.28,1.77,4.68,1.41v-27.09h-1.35v20.32c-3.17.82-2.27-.75-3.11-1.72-5.57-6.45-9.23-19.15-18.57-18.58-.1,1.48,2.48,2.53,2.71,3.37ZM1090.33,1078.15c39.52-182.8-87.34-357-270.43-383.09-231.88-33.04-435.11,180.25-371.19,410.47,56.46,203.35,289.12,291,473.74,195.49,33.06-17.1,100.72-67.63,133.52-71,41.56-4.27,80.96,39.9,107,67.25l132.51-32.26,3.44-2.64-367.23-219.94c-27.39-17.99-90.5-69.05-120.07-72.26-30.11-3.26-60.69,21.82-79.56,42.94-5.73,6.42-11.35,16.48-16.8,22.18-1.08,1.12-.91,1.25-2.8.86-2.11-13.51-58.43-74.88-67.04-73.14l-1.88,5.26c32.99,23.61,55.91,58.65,74.3,94.31-32.63-2.56-27.33,33.77-20.3,54.84,2.5,2.35,23.32-18.35,25.69-21.02,1.66-1.87,3.11-4.21,3.99-6.57l2.81-.85,23.71,67.69,11.52-4.04-8.11-24.37c15.34,6.72,30.43,3.7,46.04-.01,2.03-2.34-11.06-20.69-13.59-23.65-8.28-9.69-21.74-21.06-35.03-14.77-2.52,1.19-8.63,8.66-9.63,7.98l-25.72-54.87c21.53-.38,44.23.58,64.14,9.67,32.19,14.7,47.07,63.37,64.3,92.82,21.99,37.58,53.73,73.59,96.4,87.15-43.32,45.68-117,69.44-179.45,64.98-221.04-15.8-342.63-426.2-120.4-536.18,133.05-65.85,255.12-6.92,319.52,117.64,32.61,63.07,35.4,133.09,94.82,180.14,3.56,2.82,29.5,21.06,31.78,19ZM679.62,1039.12c-16.29,2-14.71,28.02,3.22,26.12,16.27-1.72,13.86-28.22-3.22-26.12ZM138.14,1921.98c.79-4.82-7.2-5.12-9.55-3.47-4.84,3.39,1.31,17.13,8.21,9.56-2.86-.94-5.51,2.04-7.45-2.03-2.69-7.59,3.63-8.72,8.8-4.06Z"/>
              <path d="M121.9,147.63l10.83,2.73c-3.42,6.52-9.65-.18-13.22-1.02-9.14-2.14-22.48-.86-21.92-15.81.74-19.78,33.21-18.76,29.65,3.86-.78,4.96-4.73,5.86-5.35,10.23ZM106.04,144.52c13.99,11.27,24.61-16.09,11.78-21.91-15.35-6.97-19.24,15.91-11.78,21.91Z"/>
              <path d="M140.86,120.55v22.35c0,.34,1.4,3.21,2.28,3.48l11.26-1.45v-24.38h4.06v27.09c-7.83-3.09-15.24,5.25-21.67-2.03v-25.06h4.06Z"/>
              <polygon points="180.14 78.56 184.2 78.55 184.99 89.42 197.76 89.4 197.76 78.55 201.81 78.56 201.81 107 197.76 107.01 196.97 90.73 184.2 90.74 184.2 107.01 180.14 107 180.14 78.56"/>
              <path d="M102.93,78.57l.7,9.49c3.21.2,10.5-11.55,12.85-9.49s-8.15,5.84-8.14,10.13l10.85,18.29c-5.31,3.82-12.13-12.31-13.56-16.24-1.95-1.93-2.45.12-2.69,2-.56,4.43.41,9.69,0,14.24-5.12,5.69-4.48-22.69-4.05-25.04s1.45-3.8,4.05-3.39Z"/>
              <path d="M247.87,100.23v-21.67h1.35v28.44c-1.84.04-2.64.47-4.13-.89-4.2-3.83-8.18-16.44-14.83-19.42v20.32h-1.35v-25.06c0-.57-2.85-1.97-2.71-3.37,10.83-.42,12.93,16.51,21.67,21.66Z"/>
              <path d="M205.88,123.93c-.23-.84-2.81-1.89-2.71-3.37,9.34-.57,13,12.13,18.57,18.58.83.97-.07,2.54,3.11,1.72v-20.32h1.35v27.09c-2.4.36-2.97.06-4.68-1.41-3.39-2.9-7.66-11.75-11.17-15.83-.83-.97.07-2.54-3.11-1.72v18.96h-1.35c-1.12-6.44,1.52-18.06,0-23.7Z"/>
              <path d="M207.23,78.56h17.61c-1.14,4-13.26,1.36-13.58,3.48l.03,7.37,12.21.67-12.21.67v13.56c1.03,1.03,12.33-2.28,13.55,2.69h-17.61s0-28.43,0-28.43Z"/>
              <path d="M174.71,83.98c-27.16-17.51-27.31,35.16-.64,17.63,3.79-.46,1.12,1.86-.03,2.69-13.49,9.78-31.11-4.78-22.14-19.44,7.38-12.06,26.38-4.51,22.81-.88Z"/>
              <path d="M163.89,120.55h17.6s-12.27,1.94-12.27,1.94l-1.27,7.54,12.2.69c1.22,4.25-11.09.9-12.2,2.01v13.56s13.57.67,13.57.67l-17.62.68v-27.09Z"/>
              <path d="M184.21,120.55h17.6s-13.54,1.35-13.54,1.35v8.14c17.14-1.28,16.69,4.02,0,2.69l-.02,12.77,13.58,1.46-17.62.68v-27.09Z"/>
              <path d="M138.15,81.27h-6.09s0-2.72,0-2.72h16.92c1.06,4.61-4,2.25-6.77,2.72v25.73h-4.06v-25.73Z"/>
              <path d="M123.26,80.59c8.45-7.11,4.5,17.03,4.05,20.35-.25,1.86,3.02,9.6-4.05,4.03v-24.38Z"/>
              <path d="M1522.41,79.92c1.49,5.01-5.81,1.7-6.77,2.71v4.05s7.52,1.35,7.52,1.35l.6,6.77-2.59-6.18-6.88-.58,1.28-7.53,6.85-.59Z"/>
              <path d="M138.14,1921.98c-5.17-4.66-11.49-3.53-8.8,4.06,1.94,4.07,4.59,1.09,7.45,2.03-6.89,7.57-13.05-6.17-8.21-9.56,2.36-1.65,10.34-1.35,9.55,3.47Z"/>
              <path class="cls-2" d="M106.04,144.52c-7.46-6.01-3.57-28.89,11.78-21.91,12.83,5.83,2.21,33.18-11.78,21.91Z"/>
            </g>
          </g>
        </g>
      </g>
      <g>
        <path d="M1691.27,1425.64c-.34.31-4.23-2.43-4.77-2.85-8.91-7.06-9.33-17.56-14.22-27.02-9.66-18.69-27.97-27.52-47.93-17.65-33.33,16.5-15.1,78.06,18.06,80.43,9.37.67,20.42-2.9,26.92-9.75-6.4-2.03-11.16-7.44-14.46-13.07-2.58-4.42-4.82-11.72-9.64-13.92-2.99-1.36-6.39-1.51-9.62-1.45l3.86,8.23c.15.1,1.07-1.02,1.45-1.2,1.99-.94,4.01.76,5.25,2.22.38.44,2.34,3.2,2.04,3.55-2.34.56-4.61,1.01-6.91,0l1.22,3.65-1.73.61-3.56-10.15-.42.13c-.13.35-.35.7-.6.99-.36.4-3.48,3.51-3.85,3.15-1.05-3.16-1.85-8.61,3.04-8.23-2.76-5.35-6.2-10.6-11.15-14.15l.28-.79c1.29-.26,9.74,8.94,10.06,10.97.28.06.26.04.42-.13.82-.85,1.66-2.36,2.52-3.33,2.83-3.17,7.42-6.93,11.93-6.44,4.43.48,13.9,8.14,18.01,10.84l55.09,32.99-.52.4-19.88,4.84c-3.91-4.1-9.82-10.73-16.05-10.09-4.92.51-15.07,8.09-20.03,10.65-27.69,14.33-62.59,1.18-71.06-29.32-9.59-34.53,20.9-66.53,55.68-61.57,27.46,3.91,46.49,30.04,40.56,57.46Z"/>
        <path d="M1629.67,1419.78c2.56-.32,2.92,3.66.48,3.92-2.69.29-2.93-3.62-.48-3.92Z"/>
      </g>
    </g>
  </g>
</svg>