<?xml version="1.0" encoding="UTF-8"?>
<svg id="Layer_2" data-name="Layer 2" xmlns="http://www.w3.org/2000/svg" xmlns:xlink="http://www.w3.org/1999/xlink" viewBox="3571.87 3081.86 501.06 501.06">
  <defs>
    <style>
      .cls-1 {
        fill: #fff;
      }

      .cls-2 {
        letter-spacing: .15em;
      }

      .cls-3 {
        fill: none;
      }

      .cls-4 {
        letter-spacing: .04em;
      }

      .cls-5 {
        clip-path: url(#clippath-1);
      }

      .cls-6 {
        letter-spacing: .14em;
      }

      .cls-7 {
        letter-spacing: .12em;
      }

      .cls-8 {
        font-family: SUITVariable-SemiBold, 'SUIT Variable';
        font-size: 62.63px;
        font-variation-settings: 'wght' 600;
        font-weight: 600;
      }

      .cls-9 {
        clip-path: url(#clippath);
      }
    </style>
    <clipPath id="clippath">
      <rect class="cls-3" x="3571.87" y="3081.86" width="501.06" height="501.06"/>
    </clipPath>
    <clipPath id="clippath-1">
      <rect class="cls-3" x="736.31" y="1279.19" width="2334.37" height="1989.52"/>
    </clipPath>
  </defs>
  <g id="Layer_1-2" data-name="Layer 1">
    <g>
      <g class="cls-9">
        <g>
          <text class="cls-8" transform="translate(3694.76 3468.27)"><tspan class="cls-4" x="0" y="0">O</tspan><tspan class="cls-7" x="57.62" y="0">V</tspan><tspan class="cls-2" x="113.43" y="0">BN</tspan><tspan class="cls-6" x="217.65" y="0">E</tspan></text>
          <g class="cls-5">
            <g>
              <path class="cls-1" d="M3757.98,0v4697.47H0V0h3757.98ZM237.99,181.65c-6.02-.96-8.38,2.46-9.36,7.83s-2.48,71.06,9.36,57.9c.97-10.52-1.29-22.69.01-32.92.55-4.35,1.7-9.1,6.22-4.63,3.33,9.07,19.08,46.38,31.36,37.54l-25.09-42.3c-.03-9.92,24.42-18.5,18.81-23.42s-22.27,22.41-29.7,21.94l-1.61-21.94ZM284.98,186.33v56.37c16.35,12.89,8.79-5.01,9.37-9.31,1.03-7.69,10.16-63.5-9.37-47.06ZM319.43,187.9v59.5h9.39v-59.5c6.39-1.07,18.09,4.39,15.64-6.25l-39.12-.03v6.29s14.08-.02,14.08-.02ZM403.95,194.16c8.25-8.4-35.67-25.87-52.73,2.03-20.73,33.89,20,67.56,51.19,44.94,2.64-1.92,8.83-7.29.06-6.22-61.68,40.55-61.31-81.24,1.48-40.75ZM416.51,181.64v65.76l9.38.02v-37.61s29.53-.04,29.53-.04l1.82,37.65,9.38-.02v-65.76l-9.38-.02v25.09s-29.53.04-29.53.04l-1.82-25.12-9.38.02ZM479.14,181.64v65.76l40.71-.03c-2.82-11.49-28.95-3.83-31.33-6.22v-31.35s28.23-1.55,28.23-1.55l-28.23-1.55-.07-17.04c.75-4.9,28.77,1.21,31.4-8l-40.71-.03ZM573.09,231.74c-20.22-11.9-25.06-51.04-50.11-50.07-.33,3.23,6.26,6.47,6.26,7.8v57.94h3.13v-46.97c15.38,6.89,24.58,36.05,34.29,44.91,3.46,3.15,5.3,2.16,9.56,2.06v-65.76h-3.13v50.11ZM3519.96,184.78l-15.84,1.35-2.96,17.42,15.91,1.33,6,14.3-1.39-15.66-17.39-3.11v-9.37c2.24-2.32,19.11,5.32,15.67-6.26ZM281.85,341.32c1.41-10.1,10.55-12.18,12.36-23.66,8.24-52.31-66.85-54.66-68.55-8.93-1.29,34.58,29.55,31.61,50.68,36.56,8.26,1.93,22.67,17.43,30.56,2.35l-25.05-6.32ZM325.69,278.72h-9.39v57.94c14.87,16.83,31.99-2.44,50.11,4.7v-62.63h-9.39v56.37l-26.04,3.35c-2.04-.63-5.28-7.26-5.28-8.04v-51.67ZM378.93,278.72v62.63l40.74-1.57-31.36-1.55v-31.35c2.57-2.57,31.04,5.18,28.22-4.65l-28.22-1.6,2.95-17.42,28.37-4.46-40.7-.03ZM425.9,278.72v62.63l40.74-1.57-31.4-3.37.04-29.53c38.58,3.06,39.64-9.2,0-6.23v-18.82s31.32-3.08,31.32-3.08l-40.7-.03ZM476.01,286.55c3.53,13.04-2.59,39.92,0,54.8h3.13v-43.84c7.34-1.9,5.25,1.75,7.18,3.98,8.13,9.42,18,29.88,25.83,36.6,3.97,3.4,5.27,4.1,10.83,3.26v-62.63h-3.13v46.97c-7.34,1.9-5.25-1.74-7.18-3.98-12.87-14.92-21.34-44.28-42.93-42.96-.23,3.43,5.74,5.86,6.26,7.8ZM2520.95,2492.8c91.36-422.65-201.95-825.43-625.25-885.74-536.13-76.38-1006.02,416.76-858.23,949.05,130.54,470.16,668.49,672.82,1095.33,451.99,76.44-39.55,232.86-156.37,308.71-164.17,96.09-9.88,187.2,92.25,247.4,155.49l306.38-74.58,7.95-6.09-849.08-508.52c-63.34-41.59-209.25-159.65-277.61-167.06-69.62-7.55-140.33,50.46-183.95,99.28-13.25,14.84-26.23,38.11-38.84,51.28-2.49,2.6-2.11,2.89-6.48,1.99-4.87-31.25-135.09-173.14-155-169.11l-4.34,12.16c76.27,54.6,129.28,135.61,171.8,218.05-75.44-5.93-63.18,78.07-46.93,126.81,5.78,5.43,53.92-42.43,59.39-48.61,3.83-4.33,7.19-9.74,9.22-15.19l6.49-1.97,54.81,156.5,26.65-9.34-18.76-56.33c35.46,15.54,70.37,8.54,106.45-.03,4.7-5.41-25.58-47.85-31.41-54.69-19.14-22.41-50.25-48.68-80.99-34.15-5.83,2.76-19.95,20.02-22.27,18.45l-59.47-126.86c49.78-.88,102.27,1.33,148.29,22.35,74.43,33.99,108.82,146.51,148.66,214.61,50.83,86.89,124.24,170.14,222.88,201.49-100.17,105.61-270.52,160.56-414.9,150.24-511.06-36.52-792.19-985.42-278.38-1239.71,307.63-152.25,589.85-16,738.76,272.01,75.39,145.83,81.85,307.71,219.23,416.49,8.22,6.51,68.2,48.69,73.48,43.93ZM1571.35,2402.55c-37.65,4.63-34.02,64.79,7.45,60.39,37.61-3.99,32.05-65.25-7.45-60.39ZM319.4,4443.81c1.82-11.14-16.64-11.83-22.09-8.02-11.2,7.84,3.04,39.6,18.97,22.09-6.62-2.17-12.75,4.72-17.23-4.69-6.21-17.55,8.4-20.17,20.35-9.39Z"/>
              <path d="M281.85,341.32l25.05,6.32c-7.9,15.08-22.3-.41-30.56-2.35-21.13-4.95-51.97-1.98-50.68-36.56,1.7-45.73,76.79-43.38,68.55,8.93-1.81,11.47-10.95,13.56-12.36,23.66ZM245.17,334.15c32.36,26.05,56.91-37.2,27.24-50.67-35.49-16.12-44.49,36.78-27.24,50.67Z"/>
              <path d="M325.69,278.72v51.67c0,.78,3.24,7.41,5.28,8.04l26.04-3.35v-56.37h9.39v62.63c-18.11-7.14-35.24,12.13-50.11-4.7v-57.94h9.39Z"/>
              <polygon points="416.51 181.64 425.89 181.62 427.71 206.74 457.24 206.7 457.23 181.62 466.62 181.64 466.62 247.4 457.23 247.42 455.42 209.77 425.89 209.8 425.89 247.42 416.51 247.4 416.51 181.64"/>
              <path d="M237.99,181.65l1.61,21.94c7.43.47,24.27-26.7,29.7-21.94s-18.84,13.5-18.81,23.42l25.09,42.3c-12.28,8.84-28.04-28.47-31.36-37.54-4.52-4.47-5.67.29-6.22,4.63-1.3,10.24.96,22.4-.01,32.92-11.84,13.16-10.35-52.45-9.36-57.9s3.34-8.8,9.36-7.83Z"/>
              <path d="M573.09,231.74v-50.11h3.13v65.76c-4.25.1-6.1,1.09-9.56-2.06-9.71-8.86-18.91-38.02-34.29-44.91v46.97h-3.13v-57.94c0-1.33-6.6-4.57-6.26-7.8,25.04-.97,29.89,38.18,50.11,50.07Z"/>
              <path d="M476.01,286.55c-.52-1.94-6.49-4.37-6.26-7.8,21.59-1.32,30.05,28.04,42.93,42.96,1.93,2.24-.16,5.88,7.18,3.98v-46.97h3.13v62.63c-5.56.84-6.86.14-10.83-3.26-7.84-6.71-17.7-27.18-25.83-36.6-1.93-2.24.16-5.88-7.18-3.98v43.84h-3.13c-2.59-14.88,3.53-41.77,0-54.8Z"/>
              <path d="M479.14,181.64l40.71.03c-2.63,9.21-30.65,3.11-31.4,8l.07,17.04,28.23,1.55-28.23,1.55v31.35c2.38,2.39,28.52-5.27,31.33,6.22l-40.71.03v-65.76Z"/>
              <path d="M403.95,194.16c-62.79-40.49-63.15,81.3-1.48,40.75,8.77-1.07,2.58,4.3-.06,6.22-31.19,22.62-71.93-11.05-51.19-44.94,17.06-27.89,60.98-10.43,52.73-2.03Z"/>
              <path d="M378.93,278.72l40.7.03-28.37,4.46-2.95,17.42,28.22,1.6c2.82,9.83-25.65,2.08-28.22,4.65v31.35s31.36,1.55,31.36,1.55l-40.74,1.57v-62.63Z"/>
              <path d="M425.9,278.72l40.7.03-31.32,3.08v18.82c39.64-2.97,38.58,9.29,0,6.23l-.04,29.53,31.4,3.37-40.74,1.57v-62.63Z"/>
              <path d="M319.43,187.9l-14.08.02v-6.29s39.12.03,39.12.03c2.44,10.63-9.25,5.18-15.64,6.25v59.5h-9.39v-59.5Z"/>
              <path d="M284.98,186.33c19.53-16.44,10.4,39.37,9.37,47.06-.58,4.3,6.98,22.2-9.37,9.31v-56.37Z"/>
              <path d="M3519.96,184.78c3.44,11.58-13.43,3.94-15.66,6.26v9.37s17.38,3.11,17.38,3.11l1.39,15.66-6-14.3-15.91-1.33,2.96-17.42,15.84-1.35Z"/>
              <path d="M319.4,4443.81c-11.95-10.78-26.56-8.16-20.35,9.39,4.48,9.4,10.62,2.52,17.23,4.69-15.94,17.5-30.17-14.25-18.97-22.09,5.45-3.82,23.9-3.13,22.09,8.02Z"/>
              <path class="cls-1" d="M245.17,334.15c-17.25-13.89-8.25-66.79,27.24-50.67,29.67,13.47,5.12,76.72-27.24,50.67Z"/>
            </g>
          </g>
        </g>
      </g>
      <g>
        <path d="M3910.4,3296.22c-.79.71-9.79-5.61-11.02-6.59-20.61-16.32-21.58-40.6-32.89-62.47-22.34-43.2-64.67-63.64-110.82-40.8-77.07,38.15-34.9,180.48,41.76,185.96,21.66,1.55,47.21-6.69,62.24-22.54-14.8-4.7-25.81-17.19-33.43-30.22-5.98-10.21-11.14-27.09-22.3-32.19-6.9-3.15-14.78-3.49-22.24-3.35l8.92,19.03c.35.24,2.47-2.35,3.34-2.77,4.61-2.18,9.28,1.76,12.15,5.12.88,1.03,5.42,7.39,4.71,8.2-5.41,1.29-10.65,2.33-15.97,0l2.81,8.45-4,1.4-8.22-23.48-.97.3c-.3.82-.81,1.63-1.38,2.28-.82.93-8.04,8.11-8.91,7.29-2.44-7.31-4.28-19.91,7.04-19.02-6.38-12.37-14.33-24.52-25.77-32.71l.65-1.82c2.99-.6,22.52,20.68,23.25,25.37.65.13.6.09.97-.3,1.89-1.98,3.84-5.47,5.83-7.69,6.54-7.32,17.15-16.02,27.59-14.89,10.25,1.11,32.14,18.82,41.64,25.06l127.36,76.28-1.19.91-45.96,11.19c-9.03-9.49-22.7-24.81-37.11-23.32-11.38,1.17-34.84,18.69-46.31,24.63-64.03,33.12-144.72,2.73-164.3-67.8-22.17-79.84,48.32-153.82,128.74-142.36,63.5,9.05,107.49,69.46,93.79,132.86Z"/>
        <path d="M3767.96,3282.69c5.92-.73,6.76,8.46,1.12,9.06-6.22.66-6.77-8.36-1.12-9.06Z"/>
      </g>
    </g>
  </g>
</svg>
